<?xml version="1.0" encoding="UTF-8"?>
<svg xmlns="http://www.w3.org/2000/svg" version="1.1" viewBox="0 0 49.24 49.24">
  <defs>
    <style>
      .st0 { fill: #b1ec52; }
      .st1 { fill: #4d5759; }
    </style>
  </defs>
  <path class="st0" d="M12.31,0C5.51,0,0,5.51,0,12.31v24.62c0,6.8,5.51,12.31,12.31,12.31h24.62c6.8,0,12.31-5.51,12.31-12.31V0H12.31Z"/>
  <path class="st1" d="M40.69,18.46h-5.91l-5.62,6.16v-12.31h-4.56v2.98c-.15-.19-.31-.38-.48-.57-1.66-1.76-4.05-2.65-7.11-2.65-3.53,0-5.54,1.58-6.61,2.91-1.32,1.65-1.91,3.9-1.5,5.73,1.06,4.74,5.46,5.5,8.69,5.92,2.55.33,4.99.8,4.93,3.07-.07,2.36-2.73,2.94-4.48,2.94-4.55,0-4.7-3.36-4.7-3.36h-4.89c.07,1.26.45,3.29,2.01,5.03,1.7,1.91,4.26,2.87,7.59,2.87,2.56,0,4.89-.83,6.55-2.31v2.03h4.56v-5.81l1.61-1.77,4.61,7.58h5.31l-6.71-11.09,6.71-7.35ZM13.46,19.66c-.4-1.76,1.35-3.32,3.63-3.32,2.05,0,4.1.46,4.88,3.31h2.62v4.36c-3.27-2.69-10.37-1-11.13-4.35Z"/>
</svg>
